<mxfile host="app.diagrams.net" modified="2023-04-26T03:45:01.738Z" agent="5.0 (Macintosh; Intel Mac OS X 10_15_7) AppleWebKit/537.36 (KHTML, like Gecko) Chrome/109.0.0.0 Safari/537.36" etag="VqfBU6RHcx9kgSqLz1J3" version="20.5.3" type="github">
  <diagram id="rYdwiMb5jvszhZctyrXV" name="第 1 页">
    <mxGraphModel dx="1261" dy="712" grid="0" gridSize="10" guides="1" tooltips="1" connect="1" arrows="1" fold="1" page="1" pageScale="1" pageWidth="1200" pageHeight="1920" math="0" shadow="0">
      <root>
        <mxCell id="0" />
        <mxCell id="1" parent="0" />
        <mxCell id="6RyUIfgaUFoeRIO4xXDH-37" value="" style="rounded=0;whiteSpace=wrap;html=1;" vertex="1" parent="1">
          <mxGeometry x="416" y="873" width="411" height="262" as="geometry" />
        </mxCell>
        <mxCell id="6RyUIfgaUFoeRIO4xXDH-11" value="" style="rounded=0;whiteSpace=wrap;html=1;" vertex="1" parent="1">
          <mxGeometry x="228" y="500" width="413" height="261" as="geometry" />
        </mxCell>
        <mxCell id="6RyUIfgaUFoeRIO4xXDH-1" value="master&lt;br&gt;(down)" style="ellipse;whiteSpace=wrap;html=1;aspect=fixed;fillColor=#a20025;fontColor=#ffffff;strokeColor=#6F0000;" vertex="1" parent="1">
          <mxGeometry x="262" y="529" width="80" height="80" as="geometry" />
        </mxCell>
        <mxCell id="6RyUIfgaUFoeRIO4xXDH-2" value="slave&lt;br&gt;(alive)" style="ellipse;whiteSpace=wrap;html=1;aspect=fixed;fillColor=#008a00;fontColor=#ffffff;strokeColor=#005700;" vertex="1" parent="1">
          <mxGeometry x="262" y="652" width="80" height="80" as="geometry" />
        </mxCell>
        <mxCell id="6RyUIfgaUFoeRIO4xXDH-3" value="master&lt;br&gt;(down)" style="ellipse;whiteSpace=wrap;html=1;aspect=fixed;fillColor=#a20025;fontColor=#ffffff;strokeColor=#6F0000;" vertex="1" parent="1">
          <mxGeometry x="398" y="529" width="80" height="80" as="geometry" />
        </mxCell>
        <mxCell id="6RyUIfgaUFoeRIO4xXDH-4" value="slave&lt;br&gt;(alive)" style="ellipse;whiteSpace=wrap;html=1;aspect=fixed;fillColor=#008a00;fontColor=#ffffff;strokeColor=#005700;" vertex="1" parent="1">
          <mxGeometry x="398" y="652" width="80" height="80" as="geometry" />
        </mxCell>
        <mxCell id="6RyUIfgaUFoeRIO4xXDH-5" value="master&lt;br&gt;(alive)" style="ellipse;whiteSpace=wrap;html=1;aspect=fixed;fillColor=#008a00;fontColor=#ffffff;strokeColor=#005700;" vertex="1" parent="1">
          <mxGeometry x="527" y="529" width="80" height="80" as="geometry" />
        </mxCell>
        <mxCell id="6RyUIfgaUFoeRIO4xXDH-6" value="slave&lt;br&gt;(alive)" style="ellipse;whiteSpace=wrap;html=1;aspect=fixed;fillColor=#008a00;fontColor=#ffffff;strokeColor=#005700;" vertex="1" parent="1">
          <mxGeometry x="527" y="652" width="80" height="80" as="geometry" />
        </mxCell>
        <mxCell id="6RyUIfgaUFoeRIO4xXDH-60" style="edgeStyle=orthogonalEdgeStyle;rounded=0;orthogonalLoop=1;jettySize=auto;html=1;exitX=1;exitY=0.5;exitDx=0;exitDy=0;dashed=1;" edge="1" parent="1" source="6RyUIfgaUFoeRIO4xXDH-7" target="6RyUIfgaUFoeRIO4xXDH-40">
          <mxGeometry relative="1" as="geometry">
            <mxPoint x="1160" y="845" as="targetPoint" />
            <Array as="points">
              <mxPoint x="1160" y="280" />
              <mxPoint x="1160" y="842" />
              <mxPoint x="622" y="842" />
            </Array>
          </mxGeometry>
        </mxCell>
        <mxCell id="6RyUIfgaUFoeRIO4xXDH-59" style="edgeStyle=orthogonalEdgeStyle;rounded=0;orthogonalLoop=1;jettySize=auto;html=1;exitX=0;exitY=0.5;exitDx=0;exitDy=0;dashed=1;" edge="1" parent="1" source="6RyUIfgaUFoeRIO4xXDH-7" target="6RyUIfgaUFoeRIO4xXDH-38">
          <mxGeometry relative="1" as="geometry">
            <mxPoint x="145" y="981" as="targetPoint" />
            <Array as="points">
              <mxPoint x="115" y="280" />
              <mxPoint x="115" y="844" />
              <mxPoint x="486" y="844" />
            </Array>
          </mxGeometry>
        </mxCell>
        <mxCell id="6RyUIfgaUFoeRIO4xXDH-18" value="2.1 执行cluster failover&lt;br&gt;强制切主" style="text;html=1;strokeColor=none;fillColor=none;align=center;verticalAlign=middle;whiteSpace=wrap;rounded=0;" vertex="1" parent="1">
          <mxGeometry x="301" y="330" width="131.5" height="40" as="geometry" />
        </mxCell>
        <mxCell id="6RyUIfgaUFoeRIO4xXDH-20" value="1. 执行cluster nodes进行健康检查，发现过半master宕机" style="text;html=1;strokeColor=none;fillColor=none;align=center;verticalAlign=middle;whiteSpace=wrap;rounded=0;" vertex="1" parent="1">
          <mxGeometry x="439" y="342" width="121" height="30" as="geometry" />
        </mxCell>
        <mxCell id="6RyUIfgaUFoeRIO4xXDH-82" value="" style="edgeStyle=orthogonalEdgeStyle;rounded=0;orthogonalLoop=1;jettySize=auto;html=1;dashed=1;" edge="1" parent="1" source="6RyUIfgaUFoeRIO4xXDH-23" target="6RyUIfgaUFoeRIO4xXDH-6">
          <mxGeometry relative="1" as="geometry" />
        </mxCell>
        <mxCell id="6RyUIfgaUFoeRIO4xXDH-23" value="" style="rounded=0;whiteSpace=wrap;html=1;" vertex="1" parent="1">
          <mxGeometry x="677" y="500" width="406" height="262" as="geometry" />
        </mxCell>
        <mxCell id="6RyUIfgaUFoeRIO4xXDH-24" value="old master&lt;br&gt;(down)" style="ellipse;whiteSpace=wrap;html=1;aspect=fixed;fillColor=#a20025;fontColor=#ffffff;strokeColor=#6F0000;" vertex="1" parent="1">
          <mxGeometry x="711" y="529" width="80" height="80" as="geometry" />
        </mxCell>
        <mxCell id="6RyUIfgaUFoeRIO4xXDH-25" value="new master&lt;br&gt;(alive)" style="ellipse;whiteSpace=wrap;html=1;aspect=fixed;fillColor=#008a00;fontColor=#ffffff;strokeColor=#005700;" vertex="1" parent="1">
          <mxGeometry x="711" y="652" width="80" height="80" as="geometry" />
        </mxCell>
        <mxCell id="6RyUIfgaUFoeRIO4xXDH-26" value="old master&lt;br&gt;(down)" style="ellipse;whiteSpace=wrap;html=1;aspect=fixed;fillColor=#a20025;fontColor=#ffffff;strokeColor=#6F0000;" vertex="1" parent="1">
          <mxGeometry x="847" y="529" width="80" height="80" as="geometry" />
        </mxCell>
        <mxCell id="6RyUIfgaUFoeRIO4xXDH-27" value="new master&lt;br&gt;(alive)" style="ellipse;whiteSpace=wrap;html=1;aspect=fixed;fillColor=#008a00;fontColor=#ffffff;strokeColor=#005700;" vertex="1" parent="1">
          <mxGeometry x="847" y="652" width="80" height="80" as="geometry" />
        </mxCell>
        <mxCell id="6RyUIfgaUFoeRIO4xXDH-28" value="master&lt;br&gt;(alive)" style="ellipse;whiteSpace=wrap;html=1;aspect=fixed;fillColor=#008a00;fontColor=#ffffff;strokeColor=#005700;" vertex="1" parent="1">
          <mxGeometry x="976" y="529" width="80" height="80" as="geometry" />
        </mxCell>
        <mxCell id="6RyUIfgaUFoeRIO4xXDH-29" value="slave&lt;br&gt;(alive)" style="ellipse;whiteSpace=wrap;html=1;aspect=fixed;fillColor=#008a00;fontColor=#ffffff;strokeColor=#005700;" vertex="1" parent="1">
          <mxGeometry x="976" y="652" width="80" height="80" as="geometry" />
        </mxCell>
        <mxCell id="6RyUIfgaUFoeRIO4xXDH-33" value="3.1 拉起宕机的旧主节点" style="text;html=1;strokeColor=none;fillColor=none;align=center;verticalAlign=middle;whiteSpace=wrap;rounded=0;" vertex="1" parent="1">
          <mxGeometry x="750" y="335" width="114" height="30" as="geometry" />
        </mxCell>
        <mxCell id="6RyUIfgaUFoeRIO4xXDH-34" value="3.2 拉起宕机的旧主节点" style="text;html=1;strokeColor=none;fillColor=none;align=center;verticalAlign=middle;whiteSpace=wrap;rounded=0;" vertex="1" parent="1">
          <mxGeometry x="893" y="335" width="114" height="30" as="geometry" />
        </mxCell>
        <mxCell id="6RyUIfgaUFoeRIO4xXDH-38" value="slave&lt;br&gt;(alive)" style="ellipse;whiteSpace=wrap;html=1;aspect=fixed;fillColor=#008a00;fontColor=#ffffff;strokeColor=#005700;" vertex="1" parent="1">
          <mxGeometry x="446" y="902" width="80" height="80" as="geometry" />
        </mxCell>
        <mxCell id="6RyUIfgaUFoeRIO4xXDH-39" value="new master&lt;br&gt;(alive)" style="ellipse;whiteSpace=wrap;html=1;aspect=fixed;fillColor=#008a00;fontColor=#ffffff;strokeColor=#005700;" vertex="1" parent="1">
          <mxGeometry x="446" y="1025" width="80" height="80" as="geometry" />
        </mxCell>
        <mxCell id="6RyUIfgaUFoeRIO4xXDH-40" value="slave&lt;br&gt;(alive)" style="ellipse;whiteSpace=wrap;html=1;aspect=fixed;fillColor=#008a00;fontColor=#ffffff;strokeColor=#005700;" vertex="1" parent="1">
          <mxGeometry x="582" y="902" width="80" height="80" as="geometry" />
        </mxCell>
        <mxCell id="6RyUIfgaUFoeRIO4xXDH-41" value="new master&lt;br&gt;(alive)" style="ellipse;whiteSpace=wrap;html=1;aspect=fixed;fillColor=#008a00;fontColor=#ffffff;strokeColor=#005700;" vertex="1" parent="1">
          <mxGeometry x="582" y="1025" width="80" height="80" as="geometry" />
        </mxCell>
        <mxCell id="6RyUIfgaUFoeRIO4xXDH-42" value="master&lt;br&gt;(alive)" style="ellipse;whiteSpace=wrap;html=1;aspect=fixed;fillColor=#008a00;fontColor=#ffffff;strokeColor=#005700;" vertex="1" parent="1">
          <mxGeometry x="711" y="902" width="80" height="80" as="geometry" />
        </mxCell>
        <mxCell id="6RyUIfgaUFoeRIO4xXDH-43" value="slave&lt;br&gt;(alive)" style="ellipse;whiteSpace=wrap;html=1;aspect=fixed;fillColor=#008a00;fontColor=#ffffff;strokeColor=#005700;" vertex="1" parent="1">
          <mxGeometry x="711" y="1025" width="80" height="80" as="geometry" />
        </mxCell>
        <mxCell id="6RyUIfgaUFoeRIO4xXDH-45" value="" style="endArrow=classic;html=1;rounded=0;dashed=1;exitX=1;exitY=0.5;exitDx=0;exitDy=0;" edge="1" parent="1">
          <mxGeometry width="50" height="50" relative="1" as="geometry">
            <mxPoint x="487" y="982" as="sourcePoint" />
            <mxPoint x="487" y="1027" as="targetPoint" />
            <Array as="points" />
          </mxGeometry>
        </mxCell>
        <mxCell id="6RyUIfgaUFoeRIO4xXDH-50" value="" style="endArrow=classic;html=1;rounded=0;dashed=1;exitX=1;exitY=0.5;exitDx=0;exitDy=0;" edge="1" parent="1">
          <mxGeometry width="50" height="50" relative="1" as="geometry">
            <mxPoint x="624" y="982" as="sourcePoint" />
            <mxPoint x="624" y="1027" as="targetPoint" />
            <Array as="points" />
          </mxGeometry>
        </mxCell>
        <mxCell id="6RyUIfgaUFoeRIO4xXDH-51" value="4.1 执行cluster replicate复制新主节点" style="text;html=1;strokeColor=none;fillColor=none;align=center;verticalAlign=middle;whiteSpace=wrap;rounded=0;" vertex="1" parent="1">
          <mxGeometry x="190" y="814" width="213" height="30" as="geometry" />
        </mxCell>
        <mxCell id="6RyUIfgaUFoeRIO4xXDH-54" value="主从复制" style="text;html=1;strokeColor=none;fillColor=none;align=center;verticalAlign=middle;whiteSpace=wrap;rounded=0;" vertex="1" parent="1">
          <mxGeometry x="480" y="988" width="75" height="16" as="geometry" />
        </mxCell>
        <mxCell id="6RyUIfgaUFoeRIO4xXDH-55" value="主从复制" style="text;html=1;strokeColor=none;fillColor=none;align=center;verticalAlign=middle;whiteSpace=wrap;rounded=0;" vertex="1" parent="1">
          <mxGeometry x="622" y="988" width="75" height="16" as="geometry" />
        </mxCell>
        <mxCell id="6RyUIfgaUFoeRIO4xXDH-62" value="4.2 执行cluster replicate复制新主节点" style="text;html=1;strokeColor=none;fillColor=none;align=center;verticalAlign=middle;whiteSpace=wrap;rounded=0;" vertex="1" parent="1">
          <mxGeometry x="830" y="814" width="213" height="30" as="geometry" />
        </mxCell>
        <mxCell id="6RyUIfgaUFoeRIO4xXDH-64" style="edgeStyle=orthogonalEdgeStyle;rounded=0;orthogonalLoop=1;jettySize=auto;html=1;exitX=0;exitY=0.5;exitDx=0;exitDy=0;entryX=0.5;entryY=0;entryDx=0;entryDy=0;dashed=1;" edge="1" parent="1" source="6RyUIfgaUFoeRIO4xXDH-7" target="6RyUIfgaUFoeRIO4xXDH-1">
          <mxGeometry relative="1" as="geometry" />
        </mxCell>
        <mxCell id="6RyUIfgaUFoeRIO4xXDH-66" style="edgeStyle=orthogonalEdgeStyle;rounded=0;orthogonalLoop=1;jettySize=auto;html=1;exitX=0;exitY=0.5;exitDx=0;exitDy=0;dashed=1;" edge="1" parent="1" source="6RyUIfgaUFoeRIO4xXDH-7" target="6RyUIfgaUFoeRIO4xXDH-11">
          <mxGeometry relative="1" as="geometry" />
        </mxCell>
        <mxCell id="6RyUIfgaUFoeRIO4xXDH-70" style="edgeStyle=orthogonalEdgeStyle;rounded=0;orthogonalLoop=1;jettySize=auto;html=1;exitX=0;exitY=0.5;exitDx=0;exitDy=0;dashed=1;" edge="1" parent="1" source="6RyUIfgaUFoeRIO4xXDH-7" target="6RyUIfgaUFoeRIO4xXDH-3">
          <mxGeometry relative="1" as="geometry">
            <mxPoint x="147" y="627" as="targetPoint" />
            <Array as="points">
              <mxPoint x="147" y="281" />
              <mxPoint x="147" y="628" />
              <mxPoint x="438" y="628" />
            </Array>
          </mxGeometry>
        </mxCell>
        <mxCell id="6RyUIfgaUFoeRIO4xXDH-73" style="edgeStyle=orthogonalEdgeStyle;rounded=0;orthogonalLoop=1;jettySize=auto;html=1;exitX=1;exitY=0.5;exitDx=0;exitDy=0;dashed=1;" edge="1" parent="1" source="6RyUIfgaUFoeRIO4xXDH-7" target="6RyUIfgaUFoeRIO4xXDH-24">
          <mxGeometry relative="1" as="geometry">
            <Array as="points">
              <mxPoint x="751" y="281" />
            </Array>
          </mxGeometry>
        </mxCell>
        <mxCell id="6RyUIfgaUFoeRIO4xXDH-77" style="edgeStyle=orthogonalEdgeStyle;rounded=0;orthogonalLoop=1;jettySize=auto;html=1;exitX=1;exitY=0.5;exitDx=0;exitDy=0;dashed=1;" edge="1" parent="1" source="6RyUIfgaUFoeRIO4xXDH-7" target="6RyUIfgaUFoeRIO4xXDH-26">
          <mxGeometry relative="1" as="geometry" />
        </mxCell>
        <mxCell id="6RyUIfgaUFoeRIO4xXDH-7" value="redis-operator" style="rounded=1;whiteSpace=wrap;html=1;fillColor=#b1ddf0;strokeColor=#10739e;" vertex="1" parent="1">
          <mxGeometry x="516" y="243" width="221.5" height="72" as="geometry" />
        </mxCell>
        <mxCell id="6RyUIfgaUFoeRIO4xXDH-71" value="2.2 执行cluster failover&lt;br&gt;强制切主" style="text;html=1;strokeColor=none;fillColor=none;align=center;verticalAlign=middle;whiteSpace=wrap;rounded=0;" vertex="1" parent="1">
          <mxGeometry x="153" y="330" width="131.5" height="40" as="geometry" />
        </mxCell>
        <mxCell id="6RyUIfgaUFoeRIO4xXDH-81" value="redis集群" style="text;html=1;strokeColor=none;fillColor=none;align=center;verticalAlign=middle;whiteSpace=wrap;rounded=0;" vertex="1" parent="1">
          <mxGeometry x="342" y="507" width="60" height="30" as="geometry" />
        </mxCell>
        <mxCell id="6RyUIfgaUFoeRIO4xXDH-85" value="redis集群" style="text;html=1;strokeColor=none;fillColor=none;align=center;verticalAlign=middle;whiteSpace=wrap;rounded=0;" vertex="1" parent="1">
          <mxGeometry x="527" y="882" width="60" height="30" as="geometry" />
        </mxCell>
        <mxCell id="6RyUIfgaUFoeRIO4xXDH-89" value="redis集群" style="text;html=1;strokeColor=none;fillColor=none;align=center;verticalAlign=middle;whiteSpace=wrap;rounded=0;" vertex="1" parent="1">
          <mxGeometry x="787" y="504" width="60" height="30" as="geometry" />
        </mxCell>
      </root>
    </mxGraphModel>
  </diagram>
</mxfile>
